<svg width="43" height="43" viewBox="0 0 43 43" fill="none" xmlns="http://www.w3.org/2000/svg">
<circle cx="21.5" cy="21.5" r="21.5" fill="url(#paint0_linear_72_94)"/>
<path d="M19.2675 21.7558C19.7685 22.4256 20.4077 22.9799 21.1418 23.3809C21.8759 23.782 22.6876 24.0205 23.5219 24.0802C24.3562 24.14 25.1937 24.0196 25.9774 23.7272C26.7611 23.4349 27.4728 22.9774 28.0642 22.3858L31.5642 18.8858C32.6267 17.7856 33.2147 16.3121 33.2014 14.7826C33.1881 13.2532 32.5746 11.7901 31.4931 10.7085C30.4115 9.627 28.9485 9.01351 27.419 9.00022C25.8895 8.98693 24.416 9.5749 23.3158 10.6375L21.3092 12.6325M23.9342 19.4225C23.4331 18.7527 22.7939 18.1984 22.0598 17.7974C21.3258 17.3963 20.5141 17.1579 19.6797 17.0981C18.8454 17.0383 18.008 17.1587 17.2242 17.4511C16.4405 17.7434 15.7289 18.2009 15.1375 18.7925L11.6375 22.2925C10.5749 23.3927 9.98693 24.8662 10.0002 26.3957C10.0135 27.9251 10.627 29.3882 11.7085 30.4698C12.7901 31.5513 14.2532 32.1648 15.7826 32.1781C17.3121 32.1914 18.7856 31.6034 19.8858 30.5408L21.8808 28.5458" stroke="#383838" stroke-width="3" stroke-linecap="round" stroke-linejoin="round"/>
<defs>
<linearGradient id="paint0_linear_72_94" x1="21.5" y1="0" x2="43" y2="35.5" gradientUnits="userSpaceOnUse">
<stop offset="0.685" stop-color="#ADADAD"/>
<stop offset="1" stop-color="#474747"/>
</linearGradient>
</defs>
</svg>
