<svg width="649" height="313" viewBox="0 0 649 313" fill="none" xmlns="http://www.w3.org/2000/svg">
<g filter="url(#filter0_d_14_210)">
<path d="M110.196 51.644V141.5H88.308V87.612L68.212 141.5H50.548L30.324 87.484V141.5H8.436V51.644H34.292L59.508 113.852L84.468 51.644H110.196ZM136.944 62.652C133.104 62.652 129.947 61.5427 127.472 59.324C125.083 57.02 123.888 54.204 123.888 50.876C123.888 47.4627 125.083 44.6467 127.472 42.428C129.947 40.124 133.104 38.972 136.944 38.972C140.699 38.972 143.771 40.124 146.16 42.428C148.635 44.6467 149.872 47.4627 149.872 50.876C149.872 54.204 148.635 57.02 146.16 59.324C143.771 61.5427 140.699 62.652 136.944 62.652ZM147.824 70.076V141.5H125.936V70.076H147.824ZM159.334 105.788C159.334 98.364 160.827 91.8787 163.814 86.332C166.886 80.7853 171.11 76.5187 176.486 73.532C181.947 70.5453 188.177 69.052 195.174 69.052C204.134 69.052 211.601 71.3987 217.574 76.092C223.633 80.7853 227.601 87.3987 229.478 95.932H206.182C204.219 90.4707 200.422 87.74 194.79 87.74C190.779 87.74 187.579 89.3187 185.19 92.476C182.801 95.548 181.606 99.9853 181.606 105.788C181.606 111.591 182.801 116.071 185.19 119.228C187.579 122.3 190.779 123.836 194.79 123.836C200.422 123.836 204.219 121.105 206.182 115.644H229.478C227.601 124.007 223.633 130.577 217.574 135.356C211.515 140.135 204.049 142.524 195.174 142.524C188.177 142.524 181.947 141.031 176.486 138.044C171.11 135.057 166.886 130.791 163.814 125.244C160.827 119.697 159.334 113.212 159.334 105.788ZM285.09 69.308C293.282 69.308 299.853 72.0387 304.802 77.5C309.751 82.876 312.226 90.3 312.226 99.772V141.5H290.466V102.716C290.466 97.9373 289.229 94.2253 286.754 91.58C284.279 88.9347 280.951 87.612 276.77 87.612C272.589 87.612 269.261 88.9347 266.786 91.58C264.311 94.2253 263.074 97.9373 263.074 102.716V141.5H241.186V46.78H263.074V79.676C265.293 76.5187 268.322 74.0013 272.162 72.124C276.002 70.2467 280.311 69.308 285.09 69.308ZM323.084 105.66C323.084 98.3213 324.449 91.8787 327.18 86.332C329.996 80.7853 333.793 76.5187 338.572 73.532C343.351 70.5453 348.684 69.052 354.572 69.052C359.607 69.052 364.001 70.076 367.756 72.124C371.596 74.172 374.54 76.86 376.588 80.188V70.076H398.476V141.5H376.588V131.388C374.455 134.716 371.468 137.404 367.628 139.452C363.873 141.5 359.479 142.524 354.444 142.524C348.641 142.524 343.351 141.031 338.572 138.044C333.793 134.972 329.996 130.663 327.18 125.116C324.449 119.484 323.084 112.999 323.084 105.66ZM376.588 105.788C376.588 100.327 375.052 96.0173 371.98 92.86C368.993 89.7027 365.324 88.124 360.972 88.124C356.62 88.124 352.908 89.7027 349.836 92.86C346.849 95.932 345.356 100.199 345.356 105.66C345.356 111.121 346.849 115.473 349.836 118.716C352.908 121.873 356.62 123.452 360.972 123.452C365.324 123.452 368.993 121.873 371.98 118.716C375.052 115.559 376.588 111.249 376.588 105.788ZM481.639 104.636C481.639 106.684 481.511 108.817 481.255 111.036H431.719C432.06 115.473 433.468 118.887 435.943 121.276C438.503 123.58 441.618 124.732 445.287 124.732C450.748 124.732 454.546 122.428 456.679 117.82H479.975C478.78 122.513 476.604 126.737 473.447 130.492C470.375 134.247 466.492 137.191 461.799 139.324C457.106 141.457 451.858 142.524 446.055 142.524C439.058 142.524 432.828 141.031 427.367 138.044C421.906 135.057 417.639 130.791 414.567 125.244C411.495 119.697 409.959 113.212 409.959 105.788C409.959 98.364 411.452 91.8787 414.439 86.332C417.511 80.7853 421.778 76.5187 427.239 73.532C432.7 70.5453 438.972 69.052 446.055 69.052C452.967 69.052 459.111 70.5027 464.487 73.404C469.863 76.3053 474.044 80.444 477.031 85.82C480.103 91.196 481.639 97.468 481.639 104.636ZM459.239 98.876C459.239 95.1213 457.959 92.1347 455.399 89.916C452.839 87.6973 449.639 86.588 445.799 86.588C442.13 86.588 439.015 87.6547 436.455 89.788C433.98 91.9213 432.444 94.9507 431.847 98.876H459.239ZM515.074 46.78V141.5H493.186V46.78H515.074Z" fill="white"/>
</g>
<g filter="url(#filter1_d_14_210)">
<mask id="path-2-outside-1_14_210" maskUnits="userSpaceOnUse" x="117.5" y="171.5" width="473" height="126" fill="black">
<rect fill="white" x="117.5" y="171.5" width="473" height="126"/>
<path d="M196.385 172.644V262.5H174.497V225.508H140.449V262.5H118.561V172.644H140.449V207.844H174.497V172.644H196.385ZM207.834 226.66C207.834 219.321 209.199 212.879 211.93 207.332C214.746 201.785 218.543 197.519 223.322 194.532C228.101 191.545 233.434 190.052 239.322 190.052C244.357 190.052 248.751 191.076 252.506 193.124C256.346 195.172 259.29 197.86 261.338 201.188V191.076H283.226V262.5H261.338V252.388C259.205 255.716 256.218 258.404 252.378 260.452C248.623 262.5 244.229 263.524 239.194 263.524C233.391 263.524 228.101 262.031 223.322 259.044C218.543 255.972 214.746 251.663 211.93 246.116C209.199 240.484 207.834 233.999 207.834 226.66ZM261.338 226.788C261.338 221.327 259.802 217.017 256.73 213.86C253.743 210.703 250.074 209.124 245.722 209.124C241.37 209.124 237.658 210.703 234.586 213.86C231.599 216.932 230.106 221.199 230.106 226.66C230.106 232.121 231.599 236.473 234.586 239.716C237.658 242.873 241.37 244.452 245.722 244.452C250.074 244.452 253.743 242.873 256.73 239.716C259.802 236.559 261.338 232.249 261.338 226.788ZM372.021 191.076L327.221 296.42H303.669L320.053 260.068L290.997 191.076H315.445L331.957 235.748L348.341 191.076H372.021ZM375.584 226.66C375.584 219.321 376.949 212.879 379.68 207.332C382.496 201.785 386.293 197.519 391.072 194.532C395.851 191.545 401.184 190.052 407.072 190.052C412.107 190.052 416.501 191.076 420.256 193.124C424.096 195.172 427.04 197.86 429.088 201.188V191.076H450.976V262.5H429.088V252.388C426.955 255.716 423.968 258.404 420.128 260.452C416.373 262.5 411.979 263.524 406.944 263.524C401.141 263.524 395.851 262.031 391.072 259.044C386.293 255.972 382.496 251.663 379.68 246.116C376.949 240.484 375.584 233.999 375.584 226.66ZM429.088 226.788C429.088 221.327 427.552 217.017 424.48 213.86C421.493 210.703 417.824 209.124 413.472 209.124C409.12 209.124 405.408 210.703 402.336 213.86C399.349 216.932 397.856 221.199 397.856 226.66C397.856 232.121 399.349 236.473 402.336 239.716C405.408 242.873 409.12 244.452 413.472 244.452C417.824 244.452 421.493 242.873 424.48 239.716C427.552 236.559 429.088 232.249 429.088 226.788ZM506.619 243.94V262.5H495.483C487.547 262.5 481.36 260.58 476.923 256.74C472.486 252.815 470.267 246.457 470.267 237.668V209.252H461.563V191.076H470.267V173.668H492.155V191.076H506.491V209.252H492.155V237.924C492.155 240.057 492.667 241.593 493.691 242.532C494.715 243.471 496.422 243.94 498.811 243.94H506.619ZM551.323 263.524C544.326 263.524 538.011 262.031 532.379 259.044C526.832 256.057 522.438 251.791 519.195 246.244C516.038 240.697 514.459 234.212 514.459 226.788C514.459 219.449 516.08 213.007 519.323 207.46C522.566 201.828 527.003 197.519 532.635 194.532C538.267 191.545 544.582 190.052 551.579 190.052C558.576 190.052 564.891 191.545 570.523 194.532C576.155 197.519 580.592 201.828 583.835 207.46C587.078 213.007 588.699 219.449 588.699 226.788C588.699 234.127 587.035 240.612 583.707 246.244C580.464 251.791 575.984 256.057 570.267 259.044C564.635 262.031 558.32 263.524 551.323 263.524ZM551.323 244.58C555.504 244.58 559.046 243.044 561.947 239.972C564.934 236.9 566.427 232.505 566.427 226.788C566.427 221.071 564.976 216.676 562.075 213.604C559.259 210.532 555.76 208.996 551.579 208.996C547.312 208.996 543.771 210.532 540.955 213.604C538.139 216.591 536.731 220.985 536.731 226.788C536.731 232.505 538.096 236.9 540.827 239.972C543.643 243.044 547.142 244.58 551.323 244.58Z"/>
</mask>
<path d="M196.385 172.644H197.385V171.644H196.385V172.644ZM196.385 262.5V263.5H197.385V262.5H196.385ZM174.497 262.5H173.497V263.5H174.497V262.5ZM174.497 225.508H175.497V224.508H174.497V225.508ZM140.449 225.508V224.508H139.449V225.508H140.449ZM140.449 262.5V263.5H141.449V262.5H140.449ZM118.561 262.5H117.561V263.5H118.561V262.5ZM118.561 172.644V171.644H117.561V172.644H118.561ZM140.449 172.644H141.449V171.644H140.449V172.644ZM140.449 207.844H139.449V208.844H140.449V207.844ZM174.497 207.844V208.844H175.497V207.844H174.497ZM174.497 172.644V171.644H173.497V172.644H174.497ZM195.385 172.644V262.5H197.385V172.644H195.385ZM196.385 261.5H174.497V263.5H196.385V261.5ZM175.497 262.5V225.508H173.497V262.5H175.497ZM174.497 224.508H140.449V226.508H174.497V224.508ZM139.449 225.508V262.5H141.449V225.508H139.449ZM140.449 261.5H118.561V263.5H140.449V261.5ZM119.561 262.5V172.644H117.561V262.5H119.561ZM118.561 173.644H140.449V171.644H118.561V173.644ZM139.449 172.644V207.844H141.449V172.644H139.449ZM140.449 208.844H174.497V206.844H140.449V208.844ZM175.497 207.844V172.644H173.497V207.844H175.497ZM174.497 173.644H196.385V171.644H174.497V173.644ZM211.93 207.332L211.038 206.879L211.033 206.89L211.93 207.332ZM223.322 194.532L223.852 195.38L223.322 194.532ZM252.506 193.124L252.027 194.002L252.035 194.006L252.506 193.124ZM261.338 201.188L260.486 201.712L262.338 204.721V201.188H261.338ZM261.338 191.076V190.076H260.338V191.076H261.338ZM283.226 191.076H284.226V190.076H283.226V191.076ZM283.226 262.5V263.5H284.226V262.5H283.226ZM261.338 262.5H260.338V263.5H261.338V262.5ZM261.338 252.388H262.338V248.975L260.496 251.848L261.338 252.388ZM252.378 260.452L251.907 259.57L251.899 259.574L252.378 260.452ZM223.322 259.044L222.781 259.885L222.792 259.892L223.322 259.044ZM211.93 246.116L211.03 246.552L211.034 246.561L211.038 246.569L211.93 246.116ZM256.73 213.86L256.003 214.547L256.013 214.557L256.73 213.86ZM234.586 213.86L233.869 213.163L233.869 213.163L234.586 213.86ZM234.586 239.716L233.85 240.393L233.86 240.404L233.869 240.413L234.586 239.716ZM256.73 239.716L256.013 239.019L256.004 239.029L256.73 239.716ZM208.834 226.66C208.834 219.446 210.176 213.16 212.827 207.774L211.033 206.89C208.223 212.598 206.834 219.197 206.834 226.66H208.834ZM212.822 207.785C215.564 202.383 219.243 198.26 223.852 195.38L222.792 193.684C217.843 196.777 213.928 201.188 211.038 206.879L212.822 207.785ZM223.852 195.38C228.464 192.497 233.613 191.052 239.322 191.052V189.052C233.255 189.052 227.737 190.593 222.792 193.684L223.852 195.38ZM239.322 191.052C244.219 191.052 248.443 192.047 252.027 194.002L252.985 192.246C249.059 190.105 244.494 189.052 239.322 189.052V191.052ZM252.035 194.006C255.737 195.981 258.542 198.552 260.486 201.712L262.19 200.664C260.038 197.168 256.955 194.363 252.977 192.242L252.035 194.006ZM262.338 201.188V191.076H260.338V201.188H262.338ZM261.338 192.076H283.226V190.076H261.338V192.076ZM282.226 191.076V262.5H284.226V191.076H282.226ZM283.226 261.5H261.338V263.5H283.226V261.5ZM262.338 262.5V252.388H260.338V262.5H262.338ZM260.496 251.848C258.464 255.018 255.612 257.594 251.907 259.57L252.849 261.334C256.824 259.214 259.945 256.414 262.18 252.928L260.496 251.848ZM251.899 259.574C248.315 261.529 244.091 262.524 239.194 262.524V264.524C244.366 264.524 248.931 263.471 252.857 261.33L251.899 259.574ZM239.194 262.524C233.573 262.524 228.467 261.08 223.852 258.196L222.792 259.892C227.734 262.981 233.21 264.524 239.194 264.524V262.524ZM223.863 258.203C219.247 255.236 215.565 251.067 212.822 245.663L211.038 246.569C213.927 252.258 217.839 256.708 222.781 259.885L223.863 258.203ZM212.83 245.68C210.176 240.205 208.834 233.873 208.834 226.66H206.834C206.834 234.124 208.223 240.763 211.03 246.552L212.83 245.68ZM262.338 226.788C262.338 221.132 260.742 216.549 257.447 213.163L256.013 214.557C258.862 217.486 260.338 221.521 260.338 226.788H262.338ZM257.456 213.173C254.281 209.815 250.348 208.124 245.722 208.124V210.124C249.8 210.124 253.206 211.59 256.004 214.547L257.456 213.173ZM245.722 208.124C241.096 208.124 237.127 209.814 233.869 213.163L235.303 214.557C238.189 211.591 241.644 210.124 245.722 210.124V208.124ZM233.869 213.163C230.655 216.469 229.106 221.013 229.106 226.66H231.106C231.106 221.384 232.544 217.395 235.303 214.557L233.869 213.163ZM229.106 226.66C229.106 232.31 230.656 236.925 233.85 240.393L235.322 239.039C232.543 236.022 231.106 231.933 231.106 226.66H229.106ZM233.869 240.413C237.127 243.762 241.096 245.452 245.722 245.452V243.452C241.644 243.452 238.189 241.985 235.303 239.019L233.869 240.413ZM245.722 245.452C250.348 245.452 254.281 243.761 257.456 240.403L256.004 239.029C253.206 241.986 249.8 243.452 245.722 243.452V245.452ZM257.447 240.413C260.742 237.027 262.338 232.444 262.338 226.788H260.338C260.338 232.055 258.862 236.09 256.013 239.019L257.447 240.413ZM372.021 191.076L372.941 191.467L373.533 190.076H372.021V191.076ZM327.221 296.42V297.42H327.882L328.141 296.811L327.221 296.42ZM303.669 296.42L302.757 296.009L302.121 297.42H303.669V296.42ZM320.053 260.068L320.965 260.479L321.144 260.082L320.975 259.68L320.053 260.068ZM290.997 191.076V190.076H289.491L290.075 191.464L290.997 191.076ZM315.445 191.076L316.383 190.729L316.141 190.076H315.445V191.076ZM331.957 235.748L331.019 236.095L331.961 238.642L332.896 236.092L331.957 235.748ZM348.341 191.076V190.076H347.643L347.402 190.732L348.341 191.076ZM371.101 190.685L326.301 296.029L328.141 296.811L372.941 191.467L371.101 190.685ZM327.221 295.42H303.669V297.42H327.221V295.42ZM304.581 296.831L320.965 260.479L319.141 259.657L302.757 296.009L304.581 296.831ZM320.975 259.68L291.919 190.688L290.075 191.464L319.131 260.456L320.975 259.68ZM290.997 192.076H315.445V190.076H290.997V192.076ZM314.507 191.423L331.019 236.095L332.895 235.401L316.383 190.729L314.507 191.423ZM332.896 236.092L349.28 191.42L347.402 190.732L331.018 235.404L332.896 236.092ZM348.341 192.076H372.021V190.076H348.341V192.076ZM379.68 207.332L378.788 206.879L378.783 206.89L379.68 207.332ZM391.072 194.532L391.602 195.38L391.072 194.532ZM420.256 193.124L419.777 194.002L419.785 194.006L420.256 193.124ZM429.088 201.188L428.236 201.712L430.088 204.721V201.188H429.088ZM429.088 191.076V190.076H428.088V191.076H429.088ZM450.976 191.076H451.976V190.076H450.976V191.076ZM450.976 262.5V263.5H451.976V262.5H450.976ZM429.088 262.5H428.088V263.5H429.088V262.5ZM429.088 252.388H430.088V248.975L428.246 251.848L429.088 252.388ZM420.128 260.452L419.657 259.57L419.649 259.574L420.128 260.452ZM391.072 259.044L390.531 259.885L390.542 259.892L391.072 259.044ZM379.68 246.116L378.78 246.552L378.784 246.561L378.788 246.569L379.68 246.116ZM424.48 213.86L423.753 214.547L423.763 214.557L424.48 213.86ZM402.336 213.86L401.619 213.163L401.619 213.163L402.336 213.86ZM402.336 239.716L401.6 240.393L401.61 240.404L401.619 240.413L402.336 239.716ZM424.48 239.716L423.763 239.019L423.754 239.029L424.48 239.716ZM376.584 226.66C376.584 219.446 377.926 213.16 380.577 207.774L378.783 206.89C375.973 212.598 374.584 219.197 374.584 226.66H376.584ZM380.572 207.785C383.314 202.383 386.993 198.26 391.602 195.38L390.542 193.684C385.593 196.777 381.678 201.188 378.788 206.879L380.572 207.785ZM391.602 195.38C396.214 192.497 401.363 191.052 407.072 191.052V189.052C401.005 189.052 395.487 190.593 390.542 193.684L391.602 195.38ZM407.072 191.052C411.969 191.052 416.193 192.047 419.777 194.002L420.735 192.246C416.809 190.105 412.244 189.052 407.072 189.052V191.052ZM419.785 194.006C423.487 195.981 426.292 198.552 428.236 201.712L429.94 200.664C427.788 197.168 424.705 194.363 420.727 192.242L419.785 194.006ZM430.088 201.188V191.076H428.088V201.188H430.088ZM429.088 192.076H450.976V190.076H429.088V192.076ZM449.976 191.076V262.5H451.976V191.076H449.976ZM450.976 261.5H429.088V263.5H450.976V261.5ZM430.088 262.5V252.388H428.088V262.5H430.088ZM428.246 251.848C426.214 255.018 423.362 257.594 419.657 259.57L420.599 261.334C424.574 259.214 427.695 256.414 429.93 252.928L428.246 251.848ZM419.649 259.574C416.065 261.529 411.841 262.524 406.944 262.524V264.524C412.116 264.524 416.681 263.471 420.607 261.33L419.649 259.574ZM406.944 262.524C401.323 262.524 396.217 261.08 391.602 258.196L390.542 259.892C395.484 262.981 400.96 264.524 406.944 264.524V262.524ZM391.613 258.203C386.997 255.236 383.315 251.067 380.572 245.663L378.788 246.569C381.677 252.258 385.589 256.708 390.531 259.885L391.613 258.203ZM380.58 245.68C377.926 240.205 376.584 233.873 376.584 226.66H374.584C374.584 234.124 375.973 240.763 378.78 246.552L380.58 245.68ZM430.088 226.788C430.088 221.132 428.492 216.549 425.197 213.163L423.763 214.557C426.612 217.486 428.088 221.521 428.088 226.788H430.088ZM425.206 213.173C422.031 209.815 418.098 208.124 413.472 208.124V210.124C417.55 210.124 420.956 211.59 423.754 214.547L425.206 213.173ZM413.472 208.124C408.846 208.124 404.877 209.814 401.619 213.163L403.053 214.557C405.939 211.591 409.394 210.124 413.472 210.124V208.124ZM401.619 213.163C398.405 216.469 396.856 221.013 396.856 226.66H398.856C398.856 221.384 400.294 217.395 403.053 214.557L401.619 213.163ZM396.856 226.66C396.856 232.31 398.406 236.925 401.6 240.393L403.072 239.039C400.293 236.022 398.856 231.933 398.856 226.66H396.856ZM401.619 240.413C404.877 243.762 408.846 245.452 413.472 245.452V243.452C409.394 243.452 405.939 241.985 403.053 239.019L401.619 240.413ZM413.472 245.452C418.098 245.452 422.031 243.761 425.206 240.403L423.754 239.029C420.956 241.986 417.55 243.452 413.472 243.452V245.452ZM425.197 240.413C428.492 237.027 430.088 232.444 430.088 226.788H428.088C428.088 232.055 426.612 236.09 423.763 239.019L425.197 240.413ZM506.619 243.94H507.619V242.94H506.619V243.94ZM506.619 262.5V263.5H507.619V262.5H506.619ZM476.923 256.74L476.26 257.489L476.269 257.496L476.923 256.74ZM470.267 209.252H471.267V208.252H470.267V209.252ZM461.563 209.252H460.563V210.252H461.563V209.252ZM461.563 191.076V190.076H460.563V191.076H461.563ZM470.267 191.076V192.076H471.267V191.076H470.267ZM470.267 173.668V172.668H469.267V173.668H470.267ZM492.155 173.668H493.155V172.668H492.155V173.668ZM492.155 191.076H491.155V192.076H492.155V191.076ZM506.491 191.076H507.491V190.076H506.491V191.076ZM506.491 209.252V210.252H507.491V209.252H506.491ZM492.155 209.252V208.252H491.155V209.252H492.155ZM493.691 242.532L493.015 243.269V243.269L493.691 242.532ZM505.619 243.94V262.5H507.619V243.94H505.619ZM506.619 261.5H495.483V263.5H506.619V261.5ZM495.483 261.5C487.702 261.5 481.777 259.619 477.577 255.984L476.269 257.496C480.943 261.541 487.392 263.5 495.483 263.5V261.5ZM477.586 255.991C473.449 252.332 471.267 246.311 471.267 237.668H469.267C469.267 246.604 471.522 253.297 476.26 257.489L477.586 255.991ZM471.267 237.668V209.252H469.267V237.668H471.267ZM470.267 208.252H461.563V210.252H470.267V208.252ZM462.563 209.252V191.076H460.563V209.252H462.563ZM461.563 192.076H470.267V190.076H461.563V192.076ZM471.267 191.076V173.668H469.267V191.076H471.267ZM470.267 174.668H492.155V172.668H470.267V174.668ZM491.155 173.668V191.076H493.155V173.668H491.155ZM492.155 192.076H506.491V190.076H492.155V192.076ZM505.491 191.076V209.252H507.491V191.076H505.491ZM506.491 208.252H492.155V210.252H506.491V208.252ZM491.155 209.252V237.924H493.155V209.252H491.155ZM491.155 237.924C491.155 240.189 491.696 242.06 493.015 243.269L494.367 241.795C493.638 241.127 493.155 239.926 493.155 237.924H491.155ZM493.015 243.269C494.317 244.463 496.337 244.94 498.811 244.94V242.94C496.506 242.94 495.113 242.479 494.367 241.795L493.015 243.269ZM498.811 244.94H506.619V242.94H498.811V244.94ZM532.379 259.044L531.905 259.924L531.91 259.927L532.379 259.044ZM519.195 246.244L518.326 246.739L518.332 246.749L519.195 246.244ZM519.323 207.46L520.186 207.965L520.19 207.959L519.323 207.46ZM532.635 194.532L533.104 195.415L532.635 194.532ZM570.523 194.532L570.055 195.415L570.523 194.532ZM583.835 207.46L582.968 207.959L582.972 207.965L583.835 207.46ZM583.707 246.244L582.846 245.735L582.844 245.739L583.707 246.244ZM570.267 259.044L569.804 258.158L569.798 258.161L570.267 259.044ZM561.947 239.972L561.23 239.275L561.225 239.28L561.22 239.285L561.947 239.972ZM562.075 213.604L561.338 214.28L561.343 214.285L561.348 214.291L562.075 213.604ZM540.955 213.604L541.683 214.29L541.692 214.28L540.955 213.604ZM540.827 239.972L540.08 240.636L540.085 240.642L540.09 240.648L540.827 239.972ZM551.323 262.524C544.473 262.524 538.321 261.063 532.848 258.161L531.91 259.927C537.701 262.998 544.179 264.524 551.323 264.524V262.524ZM532.853 258.164C527.472 255.266 523.21 251.131 520.058 245.739L518.332 246.749C521.665 252.451 526.193 256.849 531.905 259.924L532.853 258.164ZM520.064 245.749C517.006 240.376 515.459 234.067 515.459 226.788H513.459C513.459 234.357 515.07 241.018 518.326 246.739L520.064 245.749ZM515.459 226.788C515.459 219.601 517.045 213.338 520.186 207.965L518.46 206.955C515.115 212.676 513.459 219.298 513.459 226.788H515.459ZM520.19 207.959C523.34 202.487 527.641 198.312 533.104 195.415L532.167 193.649C526.365 196.725 521.791 201.169 518.456 206.961L520.19 207.959ZM533.104 195.415C538.577 192.513 544.729 191.052 551.579 191.052V189.052C544.435 189.052 537.957 190.578 532.167 193.649L533.104 195.415ZM551.579 191.052C558.429 191.052 564.581 192.513 570.055 195.415L570.992 193.649C565.201 190.578 558.723 189.052 551.579 189.052V191.052ZM570.055 195.415C575.517 198.312 579.818 202.487 582.968 207.959L584.702 206.961C581.367 201.169 576.793 196.725 570.992 193.649L570.055 195.415ZM582.972 207.965C586.113 213.338 587.699 219.601 587.699 226.788H589.699C589.699 219.298 588.043 212.676 584.698 206.955L582.972 207.965ZM587.699 226.788C587.699 233.97 586.072 240.275 582.846 245.735L584.568 246.753C587.998 240.949 589.699 234.283 589.699 226.788H587.699ZM582.844 245.739C579.696 251.123 575.355 255.258 569.804 258.158L570.73 259.93C576.613 256.857 581.232 252.458 584.57 246.749L582.844 245.739ZM569.798 258.161C564.325 261.063 558.173 262.524 551.323 262.524V264.524C558.467 264.524 564.945 262.998 570.736 259.927L569.798 258.161ZM551.323 245.58C555.783 245.58 559.586 243.928 562.674 240.659L561.22 239.285C558.505 242.16 555.226 243.58 551.323 243.58V245.58ZM562.664 240.669C565.886 237.355 567.427 232.676 567.427 226.788H565.427C565.427 232.335 563.981 236.445 561.23 239.275L562.664 240.669ZM567.427 226.788C567.427 220.907 565.933 216.232 562.802 212.917L561.348 214.291C564.02 217.12 565.427 221.234 565.427 226.788H567.427ZM562.812 212.928C559.806 209.649 556.04 207.996 551.579 207.996V209.996C555.481 209.996 558.712 211.415 561.338 214.28L562.812 212.928ZM551.579 207.996C547.04 207.996 543.228 209.644 540.218 212.928L541.692 214.28C544.314 211.42 547.585 209.996 551.579 209.996V207.996ZM540.227 212.918C537.175 216.155 535.731 220.836 535.731 226.788H537.731C537.731 221.135 539.103 217.026 541.683 214.29L540.227 212.918ZM535.731 226.788C535.731 232.654 537.132 237.321 540.08 240.636L541.574 239.308C539.06 236.479 537.731 232.356 537.731 226.788H535.731ZM540.09 240.648C543.096 243.927 546.862 245.58 551.323 245.58V243.58C547.421 243.58 544.19 242.161 541.564 239.296L540.09 240.648Z" fill="white" mask="url(#path-2-outside-1_14_210)"/>
</g>
<defs>
<filter id="filter0_d_14_210" x="4.43604" y="38.972" width="514.638" height="111.552" filterUnits="userSpaceOnUse" color-interpolation-filters="sRGB">
<feFlood flood-opacity="0" result="BackgroundImageFix"/>
<feColorMatrix in="SourceAlpha" type="matrix" values="0 0 0 0 0 0 0 0 0 0 0 0 0 0 0 0 0 0 127 0" result="hardAlpha"/>
<feOffset dy="4"/>
<feGaussianBlur stdDeviation="2"/>
<feComposite in2="hardAlpha" operator="out"/>
<feColorMatrix type="matrix" values="0 0 0 0 0 0 0 0 0 0 0 0 0 0 0 0 0 0 0.25 0"/>
<feBlend mode="normal" in2="BackgroundImageFix" result="effect1_dropShadow_14_210"/>
<feBlend mode="normal" in="SourceGraphic" in2="effect1_dropShadow_14_210" result="shape"/>
</filter>
<filter id="filter1_d_14_210" x="114.561" y="172.644" width="478.138" height="131.776" filterUnits="userSpaceOnUse" color-interpolation-filters="sRGB">
<feFlood flood-opacity="0" result="BackgroundImageFix"/>
<feColorMatrix in="SourceAlpha" type="matrix" values="0 0 0 0 0 0 0 0 0 0 0 0 0 0 0 0 0 0 127 0" result="hardAlpha"/>
<feOffset dy="4"/>
<feGaussianBlur stdDeviation="2"/>
<feComposite in2="hardAlpha" operator="out"/>
<feColorMatrix type="matrix" values="0 0 0 0 0 0 0 0 0 0 0 0 0 0 0 0 0 0 0.25 0"/>
<feBlend mode="normal" in2="BackgroundImageFix" result="effect1_dropShadow_14_210"/>
<feBlend mode="normal" in="SourceGraphic" in2="effect1_dropShadow_14_210" result="shape"/>
</filter>
</defs>
</svg>
