<svg width="788" height="130" viewBox="0 0 788 130" fill="none" xmlns="http://www.w3.org/2000/svg">
<g filter="url(#filter0_d_14_206)">
<path d="M79.6893 106L58.4733 76.336V106H39.6573V38.32H58.4733V67.504L79.4973 38.32H101.193L76.3293 71.152L102.441 106H79.6893ZM152.13 94.96H128.13L124.482 106H104.706L129.378 38.32H151.074L175.65 106H155.778L152.13 94.96ZM147.426 80.56L140.13 58.672L132.93 80.56H147.426ZM244.47 106H225.654L200.598 68.176V106H181.782V38.32H200.598L225.654 76.624V38.32H244.47V106ZM289.461 106L276.021 81.04H274.005V106H255.189V38.32H284.853C290.293 38.32 294.901 39.28 298.677 41.2C302.453 43.056 305.301 45.648 307.221 48.976C309.141 52.24 310.101 55.92 310.101 60.016C310.101 64.624 308.821 68.688 306.26 72.208C303.765 75.664 300.085 78.128 295.221 79.6L310.485 106H289.461ZM274.005 68.176H283.317C285.877 68.176 287.797 67.568 289.077 66.352C290.357 65.136 290.997 63.376 290.997 61.072C290.997 58.896 290.325 57.2 288.981 55.984C287.701 54.704 285.813 54.064 283.317 54.064H274.005V68.176ZM337.473 53.392V64.432H359.073V78.736H337.473V90.928H361.953V106H318.657V38.32H361.953V53.392H337.473ZM414.451 60.592C413.363 58.8 411.859 57.424 409.939 56.464C408.083 55.504 405.875 55.024 403.315 55.024C398.579 55.024 394.835 56.56 392.083 59.632C389.395 62.704 388.051 66.832 388.051 72.016C388.051 77.84 389.491 82.288 392.371 85.36C395.315 88.368 399.571 89.872 405.139 89.872C411.731 89.872 416.435 86.896 419.251 80.944H400.339V67.408H435.475V85.648C434.003 89.232 431.827 92.592 428.947 95.728C426.131 98.864 422.547 101.456 418.195 103.504C413.843 105.488 408.883 106.48 403.315 106.48C396.531 106.48 390.515 105.04 385.267 102.16C380.083 99.216 376.051 95.152 373.171 89.968C370.355 84.72 368.947 78.736 368.947 72.016C368.947 65.36 370.355 59.44 373.171 54.256C376.051 49.008 380.083 44.944 385.267 42.064C390.451 39.12 396.435 37.648 403.219 37.648C411.731 37.648 418.771 39.696 424.339 43.792C429.907 47.888 433.363 53.488 434.707 60.592H414.451ZM594.826 71.248C598.794 72.144 601.93 74.128 604.234 77.2C606.602 80.208 607.786 83.664 607.786 87.568C607.786 93.328 605.802 97.84 601.834 101.104C597.866 104.368 592.298 106 585.13 106H551.626V38.32H584.074C590.986 38.32 596.394 39.856 600.298 42.928C604.266 46 606.25 50.32 606.25 55.888C606.25 59.856 605.194 63.184 603.082 65.872C601.034 68.496 598.282 70.288 594.826 71.248ZM570.442 65.2H579.946C584.682 65.2 587.05 63.248 587.05 59.344C587.05 55.312 584.682 53.296 579.946 53.296H570.442V65.2ZM581.386 90.832C586.122 90.832 588.49 88.848 588.49 84.88C588.49 82.832 587.85 81.264 586.57 80.176C585.354 79.088 583.594 78.544 581.29 78.544H570.442V90.832H581.386ZM656.064 106L634.848 76.336V106H616.032V38.32H634.848V67.504L655.872 38.32H677.568L652.704 71.152L678.816 106H656.064ZM748.377 106H729.561L704.505 68.176V106H685.689V38.32H704.505L729.561 76.624V38.32H748.377V106Z" fill="white"/>
<path d="M504.618 106L491.466 86.896L480.234 106H458.826L480.81 71.344L458.058 38.32H480.234L493.002 56.944L503.946 38.32H525.354L503.658 72.4L526.794 106H504.618Z" fill="#DE1D5E"/>
</g>
<path d="M42.8349 19.7056C39.4837 19.7056 36.1326 19.7056 32.7815 19.7056C30.2945 19.7056 24.982 18.6886 22.5593 19.8068C19.8334 21.0649 19.4756 31.9739 19.152 34.8869" stroke="white" stroke-width="3" stroke-linecap="round"/>
<path d="M772.01 98.9481C772.01 106.864 773.805 115.98 767.925 122.216C764.675 125.663 757.209 125.844 752.827 127.722" stroke="white" stroke-width="3" stroke-linecap="round"/>
<defs>
<filter id="filter0_d_14_206" x="35.6572" y="37.648" width="716.719" height="76.832" filterUnits="userSpaceOnUse" color-interpolation-filters="sRGB">
<feFlood flood-opacity="0" result="BackgroundImageFix"/>
<feColorMatrix in="SourceAlpha" type="matrix" values="0 0 0 0 0 0 0 0 0 0 0 0 0 0 0 0 0 0 127 0" result="hardAlpha"/>
<feOffset dy="4"/>
<feGaussianBlur stdDeviation="2"/>
<feComposite in2="hardAlpha" operator="out"/>
<feColorMatrix type="matrix" values="0 0 0 0 0 0 0 0 0 0 0 0 0 0 0 0 0 0 0.25 0"/>
<feBlend mode="normal" in2="BackgroundImageFix" result="effect1_dropShadow_14_206"/>
<feBlend mode="normal" in="SourceGraphic" in2="effect1_dropShadow_14_206" result="shape"/>
</filter>
</defs>
</svg>
