<svg width="832" height="154" viewBox="0 0 832 154" fill="none" xmlns="http://www.w3.org/2000/svg">
<g filter="url(#filter0_d_14_206)">
<path d="M102.689 106.216L81.4733 76.5522V106.216H62.6573V38.5362H81.4733V67.7202L102.497 38.5362H124.193L99.3293 71.3682L125.441 106.216H102.689ZM175.13 95.1762H151.13L147.482 106.216H127.706L152.378 38.5362H174.074L198.65 106.216H178.778L175.13 95.1762ZM170.426 80.7762L163.13 58.8882L155.93 80.7762H170.426ZM267.47 106.216H248.654L223.598 68.3922V106.216H204.782V38.5362H223.598L248.654 76.8402V38.5362H267.47V106.216ZM312.461 106.216L299.021 81.2562H297.005V106.216H278.189V38.5362H307.853C313.293 38.5362 317.901 39.4962 321.677 41.4162C325.453 43.2722 328.301 45.8642 330.221 49.1922C332.141 52.4562 333.101 56.1362 333.101 60.2322C333.101 64.8402 331.821 68.9042 329.26 72.4242C326.765 75.8802 323.085 78.3442 318.221 79.8162L333.485 106.216H312.461ZM297.005 68.3922H306.317C308.877 68.3922 310.797 67.7842 312.077 66.5682C313.357 65.3522 313.997 63.5922 313.997 61.2882C313.997 59.1122 313.325 57.4162 311.981 56.2002C310.701 54.9202 308.813 54.2802 306.317 54.2802H297.005V68.3922ZM360.473 53.6082V64.6482H382.073V78.9522H360.473V91.1442H384.953V106.216H341.657V38.5362H384.953V53.6082H360.473ZM437.451 60.8082C436.363 59.0162 434.859 57.6402 432.939 56.6802C431.083 55.7202 428.875 55.2402 426.315 55.2402C421.579 55.2402 417.835 56.7762 415.083 59.8482C412.395 62.9202 411.051 67.0482 411.051 72.2322C411.051 78.0562 412.491 82.5042 415.371 85.5762C418.315 88.5842 422.571 90.0882 428.139 90.0882C434.731 90.0882 439.435 87.1122 442.251 81.1602H423.339V67.6242H458.475V85.8642C457.003 89.4482 454.827 92.8082 451.947 95.9442C449.131 99.0802 445.547 101.672 441.195 103.72C436.843 105.704 431.883 106.696 426.315 106.696C419.531 106.696 413.515 105.256 408.267 102.376C403.083 99.4322 399.051 95.3682 396.171 90.1842C393.355 84.9362 391.947 78.9522 391.947 72.2322C391.947 65.5762 393.355 59.6562 396.171 54.4722C399.051 49.2242 403.083 45.1602 408.267 42.2802C413.451 39.3362 419.435 37.8642 426.219 37.8642C434.731 37.8642 441.771 39.9122 447.339 44.0082C452.907 48.1042 456.363 53.7042 457.707 60.8082H437.451ZM617.826 71.4642C621.794 72.3602 624.93 74.3442 627.234 77.4162C629.602 80.4242 630.786 83.8802 630.786 87.7842C630.786 93.5442 628.802 98.0562 624.834 101.32C620.866 104.584 615.298 106.216 608.13 106.216H574.626V38.5362H607.074C613.986 38.5362 619.394 40.0722 623.298 43.1442C627.266 46.2162 629.25 50.5362 629.25 56.1042C629.25 60.0722 628.194 63.4002 626.082 66.0882C624.034 68.7122 621.282 70.5042 617.826 71.4642ZM593.442 65.4162H602.946C607.682 65.4162 610.05 63.4642 610.05 59.5602C610.05 55.5282 607.682 53.5122 602.946 53.5122H593.442V65.4162ZM604.386 91.0482C609.122 91.0482 611.49 89.0642 611.49 85.0962C611.49 83.0482 610.85 81.4802 609.57 80.3922C608.354 79.3042 606.594 78.7602 604.29 78.7602H593.442V91.0482H604.386ZM679.064 106.216L657.848 76.5522V106.216H639.032V38.5362H657.848V67.7202L678.872 38.5362H700.568L675.704 71.3682L701.816 106.216H679.064ZM771.377 106.216H752.561L727.505 68.3922V106.216H708.689V38.5362H727.505L752.561 76.8402V38.5362H771.377V106.216Z" fill="white"/>
<path d="M527.618 106.216L514.466 87.1122L503.234 106.216H481.826L503.81 71.5602L481.058 38.5362H503.234L516.002 57.1602L526.946 38.5362H548.354L526.658 72.6162L549.794 106.216H527.618Z" fill="#DE1D5E"/>
</g>
<g filter="url(#filter1_d_14_206)">
<path d="M117.139 143.506L111.043 136.042V143.506H107.683V126.754H111.043V134.266L117.139 126.754H121.195L114.283 135.058L121.387 143.506H117.139ZM133.869 140.314H127.197L126.093 143.506H122.565L128.589 126.73H132.501L138.525 143.506H134.973L133.869 140.314ZM132.957 137.626L130.533 130.618L128.109 137.626H132.957ZM155.105 143.506H151.745L144.137 132.01V143.506H140.777V126.73H144.137L151.745 138.25V126.73H155.105V143.506ZM169.826 126.754V129.466H165.362V143.506H162.002V129.466H157.538V126.754H169.826ZM180.053 143.674C178.485 143.674 177.045 143.306 175.733 142.57C174.421 141.834 173.381 140.818 172.613 139.522C171.845 138.21 171.461 136.73 171.461 135.082C171.461 133.45 171.845 131.986 172.613 130.69C173.381 129.378 174.421 128.354 175.733 127.618C177.045 126.882 178.485 126.514 180.053 126.514C181.637 126.514 183.077 126.882 184.373 127.618C185.685 128.354 186.717 129.378 187.469 130.69C188.237 131.986 188.621 133.45 188.621 135.082C188.621 136.73 188.237 138.21 187.469 139.522C186.717 140.818 185.685 141.834 184.373 142.57C183.061 143.306 181.621 143.674 180.053 143.674ZM180.053 140.674C181.061 140.674 181.949 140.45 182.717 140.002C183.485 139.538 184.085 138.882 184.517 138.034C184.949 137.186 185.165 136.202 185.165 135.082C185.165 133.962 184.949 132.986 184.517 132.154C184.085 131.306 183.485 130.658 182.717 130.21C181.949 129.762 181.061 129.538 180.053 129.538C179.045 129.538 178.149 129.762 177.365 130.21C176.597 130.658 175.997 131.306 175.565 132.154C175.133 132.986 174.917 133.962 174.917 135.082C174.917 136.202 175.133 137.186 175.565 138.034C175.997 138.882 176.597 139.538 177.365 140.002C178.149 140.45 179.045 140.674 180.053 140.674ZM199.761 143.506L196.065 136.978H194.481V143.506H191.121V126.754H197.409C198.705 126.754 199.809 126.986 200.721 127.45C201.633 127.898 202.313 128.514 202.761 129.298C203.225 130.066 203.457 130.93 203.457 131.89C203.457 132.994 203.137 133.994 202.497 134.89C201.857 135.77 200.905 136.378 199.641 136.714L203.649 143.506H199.761ZM194.481 134.458H197.289C198.201 134.458 198.881 134.242 199.329 133.81C199.777 133.362 200.001 132.746 200.001 131.962C200.001 131.194 199.777 130.602 199.329 130.186C198.881 129.754 198.201 129.538 197.289 129.538H194.481V134.458ZM220.855 143.506L217.159 136.978H215.575V143.506H212.215V126.754H218.503C219.799 126.754 220.903 126.986 221.815 127.45C222.727 127.898 223.407 128.514 223.855 129.298C224.319 130.066 224.551 130.93 224.551 131.89C224.551 132.994 224.231 133.994 223.591 134.89C222.951 135.77 221.999 136.378 220.735 136.714L224.743 143.506H220.855ZM215.575 134.458H218.383C219.295 134.458 219.975 134.242 220.423 133.81C220.871 133.362 221.095 132.746 221.095 131.962C221.095 131.194 220.871 130.602 220.423 130.186C219.975 129.754 219.295 129.538 218.383 129.538H215.575V134.458ZM230.95 129.466V133.666H236.59V136.33H230.95V140.77H237.31V143.506H227.59V126.73H237.31V129.466H230.95ZM252.027 131.794C251.643 131.09 251.115 130.554 250.443 130.186C249.771 129.818 248.987 129.634 248.091 129.634C247.099 129.634 246.219 129.858 245.451 130.306C244.683 130.754 244.083 131.394 243.651 132.226C243.219 133.058 243.003 134.018 243.003 135.106C243.003 136.226 243.219 137.202 243.651 138.034C244.099 138.866 244.715 139.506 245.499 139.954C246.283 140.402 247.195 140.626 248.235 140.626C249.515 140.626 250.563 140.29 251.379 139.618C252.195 138.93 252.731 137.978 252.987 136.762H247.227V134.194H256.299V137.122C256.075 138.29 255.595 139.37 254.859 140.362C254.123 141.354 253.171 142.154 252.003 142.762C250.851 143.354 249.555 143.65 248.115 143.65C246.499 143.65 245.035 143.29 243.723 142.57C242.427 141.834 241.403 140.818 240.651 139.522C239.915 138.226 239.547 136.754 239.547 135.106C239.547 133.458 239.915 131.986 240.651 130.69C241.403 129.378 242.427 128.362 243.723 127.642C245.035 126.906 246.491 126.538 248.091 126.538C249.979 126.538 251.619 127.002 253.011 127.93C254.403 128.842 255.363 130.13 255.891 131.794H252.027ZM262.145 126.754V143.506H258.785V126.754H262.145ZM273.241 143.674C271.673 143.674 270.233 143.306 268.921 142.57C267.609 141.834 266.569 140.818 265.801 139.522C265.033 138.21 264.649 136.73 264.649 135.082C264.649 133.45 265.033 131.986 265.801 130.69C266.569 129.378 267.609 128.354 268.921 127.618C270.233 126.882 271.673 126.514 273.241 126.514C274.825 126.514 276.265 126.882 277.561 127.618C278.873 128.354 279.905 129.378 280.657 130.69C281.425 131.986 281.809 133.45 281.809 135.082C281.809 136.73 281.425 138.21 280.657 139.522C279.905 140.818 278.873 141.834 277.561 142.57C276.249 143.306 274.809 143.674 273.241 143.674ZM273.241 140.674C274.249 140.674 275.137 140.45 275.905 140.002C276.673 139.538 277.273 138.882 277.705 138.034C278.137 137.186 278.353 136.202 278.353 135.082C278.353 133.962 278.137 132.986 277.705 132.154C277.273 131.306 276.673 130.658 275.905 130.21C275.137 129.762 274.249 129.538 273.241 129.538C272.233 129.538 271.337 129.762 270.553 130.21C269.785 130.658 269.185 131.306 268.753 132.154C268.321 132.986 268.105 133.962 268.105 135.082C268.105 136.202 268.321 137.186 268.753 138.034C269.185 138.882 269.785 139.538 270.553 140.002C271.337 140.45 272.233 140.674 273.241 140.674ZM298.636 143.506H295.276L287.668 132.01V143.506H284.308V126.73H287.668L295.276 138.25V126.73H298.636V143.506ZM312.229 140.314H305.557L304.453 143.506H300.925L306.949 126.73H310.861L316.885 143.506H313.333L312.229 140.314ZM311.317 137.626L308.893 130.618L306.469 137.626H311.317ZM322.496 140.842H328.016V143.506H319.136V126.754H322.496V140.842ZM345.903 143.506L342.279 137.866L338.991 143.506H335.199L340.479 135.058L335.127 126.754H338.991L342.615 132.37L345.879 126.754H349.671L344.415 135.178L349.767 143.506H345.903ZM367.547 134.914C368.491 135.09 369.267 135.562 369.875 136.33C370.483 137.098 370.787 137.978 370.787 138.97C370.787 139.866 370.563 140.658 370.115 141.346C369.683 142.018 369.051 142.546 368.219 142.93C367.387 143.314 366.403 143.506 365.267 143.506H358.043V126.754H364.955C366.091 126.754 367.067 126.938 367.883 127.306C368.715 127.674 369.339 128.186 369.755 128.842C370.187 129.498 370.403 130.242 370.403 131.074C370.403 132.05 370.139 132.866 369.611 133.522C369.099 134.178 368.411 134.642 367.547 134.914ZM361.403 133.666H364.475C365.275 133.666 365.891 133.49 366.323 133.138C366.755 132.77 366.971 132.25 366.971 131.578C366.971 130.906 366.755 130.386 366.323 130.018C365.891 129.65 365.275 129.466 364.475 129.466H361.403V133.666ZM364.787 140.77C365.603 140.77 366.235 140.578 366.683 140.194C367.147 139.81 367.379 139.266 367.379 138.562C367.379 137.842 367.139 137.282 366.659 136.882C366.179 136.466 365.531 136.258 364.715 136.258H361.403V140.77H364.787ZM383.737 140.314H377.065L375.961 143.506H372.433L378.457 126.73H382.369L388.393 143.506H384.841L383.737 140.314ZM382.825 137.626L380.401 130.618L377.977 137.626H382.825ZM396.5 126.754C398.26 126.754 399.804 127.098 401.132 127.786C402.476 128.474 403.508 129.458 404.228 130.738C404.964 132.002 405.332 133.474 405.332 135.154C405.332 136.834 404.964 138.306 404.228 139.57C403.508 140.818 402.476 141.786 401.132 142.474C399.804 143.162 398.26 143.506 396.5 143.506H390.644V126.754H396.5ZM396.38 140.65C398.14 140.65 399.5 140.17 400.46 139.21C401.42 138.25 401.9 136.898 401.9 135.154C401.9 133.41 401.42 132.05 400.46 131.074C399.5 130.082 398.14 129.586 396.38 129.586H394.004V140.65H396.38ZM418.119 140.314H411.447L410.343 143.506H406.815L412.839 126.73H416.751L422.775 143.506H419.223L418.119 140.314ZM417.207 137.626L414.783 130.618L412.359 137.626H417.207ZM439.355 143.506H435.995L428.387 132.01V143.506H425.027V126.73H428.387L435.995 138.25V126.73H439.355V143.506ZM457.85 143.506L451.754 136.042V143.506H448.394V126.754H451.754V134.266L457.85 126.754H461.906L454.994 135.058L462.098 143.506H457.85ZM467.668 129.466V133.666H473.308V136.33H467.668V140.77H474.028V143.506H464.308V126.73H474.028V129.466H467.668ZM489.298 131.938C489.298 132.834 489.082 133.674 488.65 134.458C488.234 135.242 487.57 135.874 486.658 136.354C485.762 136.834 484.626 137.074 483.25 137.074H480.442V143.506H477.082V126.754H483.25C484.546 126.754 485.65 126.978 486.562 127.426C487.474 127.874 488.154 128.49 488.602 129.274C489.066 130.058 489.298 130.946 489.298 131.938ZM483.106 134.362C484.034 134.362 484.722 134.154 485.17 133.738C485.618 133.306 485.842 132.706 485.842 131.938C485.842 130.306 484.93 129.49 483.106 129.49H480.442V134.362H483.106ZM495.043 129.466V133.666H500.683V136.33H495.043V140.77H501.403V143.506H491.683V126.73H501.403V129.466H495.043ZM516.121 131.794C515.737 131.09 515.209 130.554 514.537 130.186C513.865 129.818 513.081 129.634 512.185 129.634C511.193 129.634 510.313 129.858 509.545 130.306C508.777 130.754 508.177 131.394 507.745 132.226C507.313 133.058 507.097 134.018 507.097 135.106C507.097 136.226 507.313 137.202 507.745 138.034C508.193 138.866 508.809 139.506 509.593 139.954C510.377 140.402 511.289 140.626 512.329 140.626C513.609 140.626 514.657 140.29 515.473 139.618C516.289 138.93 516.825 137.978 517.081 136.762H511.321V134.194H520.393V137.122C520.169 138.29 519.689 139.37 518.953 140.362C518.217 141.354 517.265 142.154 516.097 142.762C514.945 143.354 513.649 143.65 512.209 143.65C510.593 143.65 509.129 143.29 507.817 142.57C506.521 141.834 505.497 140.818 504.745 139.522C504.009 138.226 503.641 136.754 503.641 135.106C503.641 133.458 504.009 131.986 504.745 130.69C505.497 129.378 506.521 128.362 507.817 127.642C509.129 126.906 510.585 126.538 512.185 126.538C514.073 126.538 515.713 127.002 517.105 127.93C518.497 128.842 519.457 130.13 519.985 131.794H516.121ZM533.151 140.314H526.479L525.375 143.506H521.847L527.871 126.73H531.783L537.807 143.506H534.255L533.151 140.314ZM532.239 137.626L529.815 130.618L527.391 137.626H532.239ZM562.45 126.754L557.77 143.506H553.81L550.666 131.578L547.378 143.506L543.442 143.53L538.93 126.754H542.53L545.482 139.762L548.89 126.754H552.634L555.85 139.69L558.826 126.754H562.45ZM574.916 140.314H568.244L567.14 143.506H563.612L569.636 126.73H573.548L579.572 143.506H576.02L574.916 140.314ZM574.004 137.626L571.58 130.618L569.156 137.626H574.004ZM585.184 126.754V143.506H581.824V126.754H585.184ZM598.776 140.314H592.104L591 143.506H587.472L593.496 126.73H597.408L603.432 143.506H599.88L598.776 140.314ZM597.864 137.626L595.44 130.618L593.016 137.626H597.864ZM620.011 143.506H616.651L609.043 132.01V143.506H605.683V126.73H609.043L616.651 138.25V126.73H620.011V143.506ZM643.379 143.506H640.019L632.411 132.01V143.506H629.051V126.73H632.411L640.019 138.25V126.73H643.379V143.506ZM650.059 129.466V133.666H655.699V136.33H650.059V140.77H656.419V143.506H646.699V126.73H656.419V129.466H650.059ZM671.136 131.794C670.752 131.09 670.224 130.554 669.552 130.186C668.88 129.818 668.096 129.634 667.2 129.634C666.208 129.634 665.328 129.858 664.56 130.306C663.792 130.754 663.192 131.394 662.76 132.226C662.328 133.058 662.112 134.018 662.112 135.106C662.112 136.226 662.328 137.202 662.76 138.034C663.208 138.866 663.824 139.506 664.608 139.954C665.392 140.402 666.304 140.626 667.344 140.626C668.624 140.626 669.672 140.29 670.488 139.618C671.304 138.93 671.84 137.978 672.096 136.762H666.336V134.194H675.408V137.122C675.184 138.29 674.704 139.37 673.968 140.362C673.232 141.354 672.28 142.154 671.112 142.762C669.96 143.354 668.664 143.65 667.224 143.65C665.608 143.65 664.144 143.29 662.832 142.57C661.536 141.834 660.512 140.818 659.76 139.522C659.024 138.226 658.656 136.754 658.656 135.106C658.656 133.458 659.024 131.986 659.76 130.69C660.512 129.378 661.536 128.362 662.832 127.642C664.144 126.906 665.6 126.538 667.2 126.538C669.088 126.538 670.728 127.002 672.12 127.93C673.512 128.842 674.472 130.13 675 131.794H671.136ZM688.166 140.314H681.494L680.39 143.506H676.862L682.886 126.73H686.798L692.822 143.506H689.27L688.166 140.314ZM687.254 137.626L684.83 130.618L682.406 137.626H687.254ZM703.714 143.506L700.018 136.978H698.434V143.506H695.074V126.754H701.362C702.658 126.754 703.762 126.986 704.674 127.45C705.586 127.898 706.266 128.514 706.714 129.298C707.178 130.066 707.41 130.93 707.41 131.89C707.41 132.994 707.09 133.994 706.45 134.89C705.81 135.77 704.858 136.378 703.594 136.714L707.602 143.506H703.714ZM698.434 134.458H701.242C702.154 134.458 702.834 134.242 703.282 133.81C703.73 133.362 703.954 132.746 703.954 131.962C703.954 131.194 703.73 130.602 703.282 130.186C702.834 129.754 702.154 129.538 701.242 129.538H698.434V134.458ZM720.721 140.314H714.049L712.945 143.506H709.417L715.441 126.73H719.353L725.377 143.506H721.825L720.721 140.314ZM719.809 137.626L717.385 130.618L714.961 137.626H719.809Z" fill="#4955C2"/>
</g>
<path d="M65.8349 19.9217C62.4837 19.9217 59.1326 19.9217 55.7815 19.9217C53.2945 19.9217 47.982 18.9048 45.5593 20.0229C42.8334 21.2811 42.4756 32.1901 42.152 35.1031" stroke="white" stroke-width="3" stroke-linecap="round"/>
<path d="M765.5 149.663C768.851 149.663 772.202 149.663 775.553 149.663C778.04 149.663 783.353 150.68 785.775 149.562C788.501 148.304 788.859 137.395 789.183 134.482" stroke="white" stroke-width="3" stroke-linecap="round"/>
<defs>
<filter id="filter0_d_14_206" x="58.6572" y="37.8642" width="716.719" height="76.832" filterUnits="userSpaceOnUse" color-interpolation-filters="sRGB">
<feFlood flood-opacity="0" result="BackgroundImageFix"/>
<feColorMatrix in="SourceAlpha" type="matrix" values="0 0 0 0 0 0 0 0 0 0 0 0 0 0 0 0 0 0 127 0" result="hardAlpha"/>
<feOffset dy="4"/>
<feGaussianBlur stdDeviation="2"/>
<feComposite in2="hardAlpha" operator="out"/>
<feColorMatrix type="matrix" values="0 0 0 0 0 0 0 0 0 0 0 0 0 0 0 0 0 0 0.25 0"/>
<feBlend mode="normal" in2="BackgroundImageFix" result="effect1_dropShadow_14_206"/>
<feBlend mode="normal" in="SourceGraphic" in2="effect1_dropShadow_14_206" result="shape"/>
</filter>
<filter id="filter1_d_14_206" x="103.683" y="126.514" width="625.694" height="25.16" filterUnits="userSpaceOnUse" color-interpolation-filters="sRGB">
<feFlood flood-opacity="0" result="BackgroundImageFix"/>
<feColorMatrix in="SourceAlpha" type="matrix" values="0 0 0 0 0 0 0 0 0 0 0 0 0 0 0 0 0 0 127 0" result="hardAlpha"/>
<feOffset dy="4"/>
<feGaussianBlur stdDeviation="2"/>
<feComposite in2="hardAlpha" operator="out"/>
<feColorMatrix type="matrix" values="0 0 0 0 0 0 0 0 0 0 0 0 0 0 0 0 0 0 0.25 0"/>
<feBlend mode="normal" in2="BackgroundImageFix" result="effect1_dropShadow_14_206"/>
<feBlend mode="normal" in="SourceGraphic" in2="effect1_dropShadow_14_206" result="shape"/>
</filter>
</defs>
</svg>
